<svg width="30" height="30" viewBox="0 0 30 30" fill="none" xmlns="http://www.w3.org/2000/svg">
<path d="M4.39453 4.39453L2.40234 2.40234C1.51758 1.51758 0 2.14453 0 3.39258V9.84375C0 10.623 0.626953 11.25 1.40625 11.25H7.85742C9.11133 11.25 9.73828 9.73242 8.85352 8.84766L7.04883 7.04297C9.08203 5.00977 11.8945 3.75 15 3.75C21.2109 3.75 26.25 8.78906 26.25 15C26.25 21.2109 21.2109 26.25 15 26.25C12.6094 26.25 10.3945 25.5059 8.57227 24.2344C7.72266 23.6426 6.55664 23.8477 5.95898 24.6973C5.36133 25.5469 5.57227 26.7129 6.42188 27.3105C8.85938 29.0039 11.8184 30 15 30C23.2852 30 30 23.2852 30 15C30 6.71484 23.2852 0 15 0C10.8574 0 7.10742 1.68164 4.39453 4.39453ZM15 7.5C14.2207 7.5 13.5938 8.12695 13.5938 8.90625V15C13.5938 15.375 13.7402 15.7324 14.0039 15.9961L18.2227 20.2148C18.7734 20.7656 19.6641 20.7656 20.209 20.2148C20.7539 19.6641 20.7598 18.7734 20.209 18.2285L16.4004 14.4199V8.90625C16.4004 8.12695 15.7734 7.5 14.9941 7.5H15Z" fill="black"/>
</svg>
