<svg width="26" height="30" viewBox="0 0 26 30" fill="none" xmlns="http://www.w3.org/2000/svg">
<path d="M13 15C11.0298 15 9.14033 14.2098 7.74721 12.8033C6.35408 11.3968 5.57143 9.48912 5.57143 7.5C5.57143 5.51088 6.35408 3.60322 7.74721 2.1967C9.14033 0.790176 11.0298 0 13 0C14.9702 0 16.8597 0.790176 18.2528 2.1967C19.6459 3.60322 20.4286 5.51088 20.4286 7.5C20.4286 9.48912 19.6459 11.3968 18.2528 12.8033C16.8597 14.2098 14.9702 15 13 15ZM15.6522 17.8125C21.3687 17.8125 26 22.4883 26 28.2598C26 29.2207 25.2281 30 24.2763 30H1.72366C0.771875 30 0 29.2207 0 28.2598C0 22.4883 4.63125 17.8125 10.3478 17.8125H15.6522Z" fill="black"/>
</svg>
