<svg width="27" height="30" viewBox="0 0 27 30" fill="none" xmlns="http://www.w3.org/2000/svg">
<path d="M5.625 0C2.51953 0 0 2.51953 0 5.625V24.375C0 27.4805 2.51953 30 5.625 30H22.5H24.375C25.4121 30 26.25 29.1621 26.25 28.125C26.25 27.0879 25.4121 26.25 24.375 26.25V22.5C25.4121 22.5 26.25 21.6621 26.25 20.625V1.875C26.25 0.837891 25.4121 0 24.375 0H22.5H5.625ZM5.625 22.5H20.625V26.25H5.625C4.58789 26.25 3.75 25.4121 3.75 24.375C3.75 23.3379 4.58789 22.5 5.625 22.5ZM7.5 8.4375C7.5 7.92188 7.92188 7.5 8.4375 7.5H19.6875C20.2031 7.5 20.625 7.92188 20.625 8.4375C20.625 8.95312 20.2031 9.375 19.6875 9.375H8.4375C7.92188 9.375 7.5 8.95312 7.5 8.4375ZM8.4375 11.25H19.6875C20.2031 11.25 20.625 11.6719 20.625 12.1875C20.625 12.7031 20.2031 13.125 19.6875 13.125H8.4375C7.92188 13.125 7.5 12.7031 7.5 12.1875C7.5 11.6719 7.92188 11.25 8.4375 11.25Z" fill="black"/>
</svg>
