<svg width="59" height="46" viewBox="0 0 59 46" fill="none" xmlns="http://www.w3.org/2000/svg">
<path d="M21.1875 0.5H18.375C12.1618 0.5 7.125 5.53679 7.125 11.75V14.5625C7.90164 15.3391 9.16086 15.3391 9.9375 14.5625V11.75C9.9375 7.09011 13.7151 3.3125 18.375 3.3125H21.1875C21.9641 2.53586 21.9641 1.27664 21.1875 0.5ZM21.1875 42.6875H18.375C13.7151 42.6875 9.9375 38.91 9.9375 34.25V31.4375C9.16086 30.661 7.90164 30.661 7.125 31.4375V34.25C7.125 40.4631 12.1618 45.5 18.375 45.5H21.1875C21.9641 44.7235 21.9641 43.464 21.1875 42.6875ZM38.0625 45.5C37.286 44.7235 37.286 43.464 38.0625 42.6875H40.875C45.535 42.6875 49.3125 38.91 49.3125 34.25V31.4375C50.089 30.661 51.3485 30.661 52.125 31.4375V34.25C52.125 40.4631 47.0881 45.5 40.875 45.5H38.0625ZM38.0625 3.3125C37.286 2.53586 37.286 1.27664 38.0625 0.5H40.875C47.0881 0.5 52.125 5.53679 52.125 11.75V14.5625C51.3485 15.3391 50.089 15.3391 49.3125 14.5625V11.75C49.3125 7.09011 45.535 3.3125 40.875 3.3125H38.0625Z" fill="white"/>
<path d="M15.5625 14.5627C15.5625 11.4561 18.0809 8.93774 21.1875 8.93774H38.0625C41.1692 8.93774 43.6875 11.4561 43.6875 14.5627V31.4377C43.6875 34.5444 41.1692 37.0627 38.0625 37.0627H21.1875C18.0809 37.0627 15.5625 34.5444 15.5625 31.4377V14.5627Z" fill="white"/>
<path d="M1.5 23H57.75" stroke="#CA2131" stroke-width="1.5" stroke-linecap="round"/>
</svg>
