<svg width="35" height="30" viewBox="0 0 35 30" fill="none" xmlns="http://www.w3.org/2000/svg">
<path d="M11.7857 3.75V6.42857H22.5V3.75C22.5 3.45536 22.2589 3.21429 21.9643 3.21429H12.3214C12.0268 3.21429 11.7857 3.45536 11.7857 3.75ZM8.57143 6.42857V3.75C8.57143 1.6808 10.2522 0 12.3214 0H21.9643C24.0335 0 25.7143 1.6808 25.7143 3.75V6.42857H27.596C28.4464 6.42857 29.2634 6.77009 29.8661 7.37277L33.3415 10.8482C33.9442 11.4509 34.2857 12.2679 34.2857 13.1183V19.2857H25.7143V17.1429C25.7143 15.9576 24.7567 15 23.5714 15C22.3862 15 21.4286 15.9576 21.4286 17.1429V19.2857H12.8571V17.1429C12.8571 15.9576 11.8996 15 10.7143 15C9.52902 15 8.57143 15.9576 8.57143 17.1429V19.2857H0V13.1183C0 12.2679 0.341518 11.4509 0.944196 10.8482L4.41964 7.37277C5.02232 6.77009 5.83929 6.42857 6.68973 6.42857H8.57143ZM0 25.7143V21.4286H8.57143C8.57143 22.6138 9.52902 23.5714 10.7143 23.5714C11.8996 23.5714 12.8571 22.6138 12.8571 21.4286H21.4286C21.4286 22.6138 22.3862 23.5714 23.5714 23.5714C24.7567 23.5714 25.7143 22.6138 25.7143 21.4286H34.2857V25.7143C34.2857 28.0781 32.3638 30 30 30H4.28571C1.92188 30 0 28.0781 0 25.7143Z" fill="black"/>
</svg>
